<?xml version="1.0" encoding="UTF-8"?>
<svg version="1.1" xmlns="http://www.w3.org/2000/svg" width="200" height="200">
<path d="M0 0 C66 0 132 0 200 0 C200 66 200 132 200 200 C134 200 68 200 0 200 C0 134 0 68 0 0 Z " fill="#231F20" transform="translate(0,0)"/>
<path d="M0 0 C12.21 0 24.42 0 37 0 C37 0.33 37 0.66 37 1 C35.02 1 33.04 1 31 1 C31.00444122 1.59690643 31.00888245 2.19381287 31.01345825 2.80880737 C31.05760581 9.00516371 31.08783059 15.20147558 31.10986328 21.39794922 C31.11993892 23.71242079 31.13359975 26.02687959 31.15087891 28.34130859 C31.17505865 31.66246693 31.1864673 34.9834574 31.1953125 38.3046875 C31.20563507 39.34430634 31.21595764 40.38392517 31.22659302 41.45504761 C31.22681961 42.89631516 31.22681961 42.89631516 31.22705078 44.36669922 C31.231492 45.21497284 31.23593323 46.06324646 31.24050903 46.93722534 C31 49 31 49 29 51 C29 50.34 29 49.68 29 49 C28.34 49 27.68 49 27 49 C27.33 48.01 27.66 47.02 28 46 C28 45.01 28 44.02 28 43 C26.35 42.67 24.7 42.34 23 42 C22.67 42.99 22.34 43.98 22 45 C19.4375 46.1875 19.4375 46.1875 17 47 C16 46 16 46 15.9375 43.4375 C15.958125 42.633125 15.97875 41.82875 16 41 C15.401875 40.896875 14.80375 40.79375 14.1875 40.6875 C11.71756736 39.91123545 10.67748765 38.92911079 9 37 C10.65 37 12.3 37 14 37 C14.165 36.360625 14.33 35.72125 14.5 35.0625 C16 33 16 33 17.84375 32.58203125 C19.26798598 32.44528395 20.69584558 32.34174267 22.125 32.2734375 C24.24316208 32.15528132 24.24316208 32.15528132 26 30 C26.41666667 26.5 26.41666667 26.5 26 23 C23.10538099 20.63860698 23.10538099 20.63860698 19.4375 21.1875 C15.74174248 21.64839762 15.74174248 21.64839762 14 25 C13.33841957 27.04584079 13.33841957 27.04584079 12.875 29.1875 C12.441875 31.0746875 12.441875 31.0746875 12 33 C12.66 33 13.32 33 14 33 C14 33.99 14 34.98 14 36 C12 36 12 36 10.375 34.5 C9.92125 34.005 9.4675 33.51 9 33 C8.855625 33.61875 8.71125 34.2375 8.5625 34.875 C8 37 8 37 7 39 C6.77532169 40.53668865 6.59203195 42.07968054 6.4375 43.625 C6.35371094 44.44226563 6.26992187 45.25953125 6.18359375 46.1015625 C6.12300781 46.72804687 6.06242187 47.35453125 6 48 C6.99 48.33 7.98 48.66 9 49 C8.34 50.98 7.68 52.96 7 55 C7.66 55 8.32 55 9 55 C9.33 54.01 9.66 53.02 10 52 C12.64 52.33 15.28 52.66 18 53 C18 54.32 18 55.64 18 57 C17.154375 57.598125 16.30875 58.19625 15.4375 58.8125 C14.633125 59.534375 13.82875 60.25625 13 61 C12.95768738 65.3559958 12.95768738 65.3559958 15 69 C19.01657143 69.22918242 19.01657143 69.22918242 23 69 C23.66 68.34 24.32 67.68 25 67 C24.69903201 62.86169011 24.32101984 60.48152976 22 57 C22.66 57 23.32 57 24 57 C24 56.34 24 55.68 24 55 C23.34 55 22.68 55 22 55 C22.66 53.02 23.32 51.04 24 49 C25.9375 49.8125 25.9375 49.8125 28 51 C28.33 51.99 28.66 52.98 29 54 C30.65 54 32.3 54 34 54 C34.40089844 55.10214844 34.80179687 56.20429687 35.21484375 57.33984375 C39.05540228 67.67247415 43.59285642 77.27716448 48.88574219 86.93408203 C50.68650828 90.2728381 52.3773336 93.66429601 54.0625 97.0625 C54.38565186 97.71226807 54.70880371 98.36203613 55.04174805 99.03149414 C56.02954178 101.02015353 57.01505016 103.0099307 58 105 C59.41405714 107.85547052 60.83124733 110.70936011 62.25 113.5625 C62.56718994 114.20517822 62.88437988 114.84785645 63.21118164 115.51000977 C64.77192105 118.64829718 66.39838271 121.69691326 68.1953125 124.70703125 C70.65548592 129.19604899 70.80881726 130.98533299 70 136 C66.80369401 139.48301298 64.61100694 141.24931159 59.85740662 141.63491821 C58.2534298 141.66441392 56.64880398 141.66673626 55.04467773 141.64697266 C54.16425812 141.65573425 53.2838385 141.66449585 52.3767395 141.67352295 C49.47851686 141.69545587 46.58183077 141.68098731 43.68359375 141.6640625 C41.66390186 141.66743209 39.64421194 141.6722859 37.62452698 141.67855835 C33.39703007 141.68592115 29.17006225 141.67524195 24.94262695 141.65185547 C19.52617825 141.62334999 14.11096731 141.63978697 8.69456387 141.66971779 C4.5260537 141.68779105 0.35783673 141.68203287 -3.8106823 141.66907883 C-5.80776046 141.66574585 -7.80486533 141.66982806 -9.80191231 141.68147659 C-12.59334914 141.6941877 -15.38278442 141.67480587 -18.17407227 141.64697266 C-18.99758682 141.65709381 -19.82110138 141.66721497 -20.66957092 141.67764282 C-24.88858444 141.59977251 -26.55058146 141.34211835 -30.01841736 138.70223999 C-32.21356208 135.70877016 -32.64014451 133.73321229 -32.390625 130.03027344 C-31.74217867 126.65997365 -30.23355643 124.06537841 -28.5 121.125 C-25.32849077 115.5571607 -22.54037232 109.94540099 -20 104.0625 C-17.45511755 98.19864065 -14.77944127 92.44450717 -11.875 86.75 C-8.86849268 80.82771771 -6.04235842 74.87146279 -3.5390625 68.71386719 C-2.56864615 66.32977627 -1.53981579 64.02671039 -0.4375 61.6953125 C4.98440599 49.30625732 4.89485315 37.35719784 4.875 24 C4.89316599 21.76039344 4.91398073 19.52080674 4.9375 17.28125 C4.98882511 11.85401664 5.00763151 6.42745439 5 1 C3.35 1 1.7 1 0 1 C0 0.67 0 0.34 0 0 Z " fill="#242021" transform="translate(81,39)"/>
<path d="M0 0 C12.21 0 24.42 0 37 0 C37 0.33 37 0.66 37 1 C35.02 1 33.04 1 31 1 C31.00444122 1.59690643 31.00888245 2.19381287 31.01345825 2.80880737 C31.05760581 9.00516371 31.08783059 15.20147558 31.10986328 21.39794922 C31.11993892 23.71242079 31.13359975 26.02687959 31.15087891 28.34130859 C31.17505865 31.66246693 31.1864673 34.9834574 31.1953125 38.3046875 C31.20563507 39.34430634 31.21595764 40.38392517 31.22659302 41.45504761 C31.22681961 42.89631516 31.22681961 42.89631516 31.22705078 44.36669922 C31.231492 45.21497284 31.23593323 46.06324646 31.24050903 46.93722534 C31 49 31 49 29 51 C29 50.34 29 49.68 29 49 C28.34 49 27.68 49 27 49 C27.33 48.01 27.66 47.02 28 46 C28 45.01 28 44.02 28 43 C26.35 42.67 24.7 42.34 23 42 C22.67 42.99 22.34 43.98 22 45 C19.4375 46.1875 19.4375 46.1875 17 47 C16 46 16 46 15.9375 43.4375 C15.958125 42.633125 15.97875 41.82875 16 41 C15.401875 40.896875 14.80375 40.79375 14.1875 40.6875 C11.71756736 39.91123545 10.67748765 38.92911079 9 37 C10.65 37 12.3 37 14 37 C14.165 36.360625 14.33 35.72125 14.5 35.0625 C16 33 16 33 17.84375 32.58203125 C19.26798598 32.44528395 20.69584558 32.34174267 22.125 32.2734375 C24.24316208 32.15528132 24.24316208 32.15528132 26 30 C26.41666667 26.5 26.41666667 26.5 26 23 C23.10538099 20.63860698 23.10538099 20.63860698 19.4375 21.1875 C15.74174248 21.64839762 15.74174248 21.64839762 14 25 C13.33841957 27.04584079 13.33841957 27.04584079 12.875 29.1875 C12.441875 31.0746875 12.441875 31.0746875 12 33 C12.66 33 13.32 33 14 33 C14 33.99 14 34.98 14 36 C12 36 12 36 10.375 34.5 C9.92125 34.005 9.4675 33.51 9 33 C8.855625 33.61875 8.71125 34.2375 8.5625 34.875 C8 37 8 37 7 39 C6.77532169 40.53668865 6.59203195 42.07968054 6.4375 43.625 C6.35371094 44.44226563 6.26992187 45.25953125 6.18359375 46.1015625 C6.12300781 46.72804687 6.06242187 47.35453125 6 48 C6.99 48.33 7.98 48.66 9 49 C8.34 50.98 7.68 52.96 7 55 C7.66 55 8.32 55 9 55 C9.33 54.01 9.66 53.02 10 52 C12.64 52.33 15.28 52.66 18 53 C18 54.32 18 55.64 18 57 C17.154375 57.598125 16.30875 58.19625 15.4375 58.8125 C14.633125 59.534375 13.82875 60.25625 13 61 C12.95768738 65.3559958 12.95768738 65.3559958 15 69 C19.01657143 69.22918242 19.01657143 69.22918242 23 69 C23.66 68.34 24.32 67.68 25 67 C24.69903201 62.86169011 24.32101984 60.48152976 22 57 C22.66 57 23.32 57 24 57 C24 56.34 24 55.68 24 55 C23.34 55 22.68 55 22 55 C22.66 53.02 23.32 51.04 24 49 C25.9375 49.8125 25.9375 49.8125 28 51 C28.33 51.99 28.66 52.98 29 54 C30.65 54 32.3 54 34 54 C34.40089844 55.10214844 34.80179687 56.20429687 35.21484375 57.33984375 C39.05540228 67.67247415 43.59285642 77.27716448 48.88574219 86.93408203 C50.68650828 90.2728381 52.3773336 93.66429601 54.0625 97.0625 C54.38565186 97.71226807 54.70880371 98.36203613 55.04174805 99.03149414 C56.02954178 101.02015353 57.01505016 103.0099307 58 105 C59.41405714 107.85547052 60.83124733 110.70936011 62.25 113.5625 C62.56718994 114.20517822 62.88437988 114.84785645 63.21118164 115.51000977 C64.77192105 118.64829718 66.39838271 121.69691326 68.1953125 124.70703125 C70.65548592 129.19604899 70.80881726 130.98533299 70 136 C66.80369401 139.48301298 64.61100694 141.24931159 59.85740662 141.63491821 C58.2534298 141.66441392 56.64880398 141.66673626 55.04467773 141.64697266 C54.16425812 141.65573425 53.2838385 141.66449585 52.3767395 141.67352295 C49.47851686 141.69545587 46.58183077 141.68098731 43.68359375 141.6640625 C41.66390186 141.66743209 39.64421194 141.6722859 37.62452698 141.67855835 C33.39703007 141.68592115 29.17006225 141.67524195 24.94262695 141.65185547 C19.52617825 141.62334999 14.11096731 141.63978697 8.69456387 141.66971779 C4.5260537 141.68779105 0.35783673 141.68203287 -3.8106823 141.66907883 C-5.80776046 141.66574585 -7.80486533 141.66982806 -9.80191231 141.68147659 C-12.59334914 141.6941877 -15.38278442 141.67480587 -18.17407227 141.64697266 C-18.99758682 141.65709381 -19.82110138 141.66721497 -20.66957092 141.67764282 C-24.88858444 141.59977251 -26.55058146 141.34211835 -30.01841736 138.70223999 C-32.21356208 135.70877016 -32.64014451 133.73321229 -32.390625 130.03027344 C-31.74217867 126.65997365 -30.23355643 124.06537841 -28.5 121.125 C-25.32849077 115.5571607 -22.54037232 109.94540099 -20 104.0625 C-17.45511755 98.19864065 -14.77944127 92.44450717 -11.875 86.75 C-8.86849268 80.82771771 -6.04235842 74.87146279 -3.5390625 68.71386719 C-2.56864615 66.32977627 -1.53981579 64.02671039 -0.4375 61.6953125 C4.98440599 49.30625732 4.89485315 37.35719784 4.875 24 C4.89316599 21.76039344 4.91398073 19.52080674 4.9375 17.28125 C4.98882511 11.85401664 5.00763151 6.42745439 5 1 C3.35 1 1.7 1 0 1 C0 0.67 0 0.34 0 0 Z M-4 86 C-4.99 87.65 -5.98 89.3 -7 91 C-7.66 90.67 -8.32 90.34 -9 90 C-13.20462624 97.78303156 -17.34720259 105.59185026 -21.3125 113.5 C-21.63734375 114.14517578 -21.9621875 114.79035156 -22.296875 115.45507812 C-27.08165618 124.28750149 -27.08165618 124.28750149 -28 134 C-27.03628726 135.8034613 -27.03628726 135.8034613 -25 137 C-22.23818584 137.30649144 -19.69987315 137.43035734 -16.93603516 137.41992188 C-15.70384499 137.43262619 -15.70384499 137.43262619 -14.44676208 137.44558716 C-11.72737198 137.4690131 -9.00854594 137.4699779 -6.2890625 137.46875 C-4.39960503 137.47584894 -2.51014972 137.48354754 -0.62069702 137.49182129 C3.34212228 137.50527948 7.30474234 137.5068292 11.26757812 137.50097656 C16.34440231 137.49508356 21.42026915 137.5256491 26.49690819 137.56609344 C30.40031072 137.59195392 34.30348238 137.59484928 38.20695877 137.59120178 C40.07846098 137.59289503 41.94997363 137.60255723 43.82139206 137.62034607 C46.44065948 137.64250041 49.0579849 137.63285247 51.67724609 137.61523438 C52.44936935 137.62849762 53.22149261 137.64176086 54.01701355 137.65542603 C58.0022663 137.59318922 59.82617756 137.13461512 63.01455688 134.66540527 C65.30961621 132.11759719 65.30961621 132.11759719 65.08984375 128.73828125 C63.7622421 124.18446483 61.84983554 120.32626315 59.5625 116.1875 C59.12309082 115.3730542 58.68368164 114.5586084 58.23095703 113.71948242 C56.83347054 111.13906851 55.41911975 108.56857304 54 106 C53.28191162 104.69530762 53.28191162 104.69530762 52.54931641 103.36425781 C49.7209636 98.23071572 46.86971109 93.11052805 44 88 C41.16773992 88.91857084 38.37151891 89.84070643 35.63354492 91.01464844 C28.05900272 94.14009679 21.4424898 94.48737196 13.3125 94.25 C12.12205078 94.23195313 10.93160156 94.21390625 9.70507812 94.1953125 C6.80250969 94.14868489 3.90170889 94.08326281 1 94 C1.33 93.67 1.66 93.34 2 93 C2.04080783 91.00041636 2.04254356 88.99954746 2 87 C-0.97 86.505 -0.97 86.505 -4 86 Z " fill="#EFEFEF" transform="translate(81,39)"/>
<path d="M0 0 C7.75 0.75 7.75 0.75 10 3 C9.625 5.125 9.625 5.125 9 7 C6.23735711 7.59732819 3.83967231 8 1 8 C1.49756092 10.75641416 1.49756092 10.75641416 3 13 C3.99 12.01 4.98 11.02 6 10 C9.97674419 13.85623679 9.97674419 13.85623679 10.04296875 17.11328125 C9.7798228 19.08863015 9.39718314 21.04718291 9 23 C9.66 23 10.32 23 11 23 C11 23.66 11 24.32 11 25 C12.32 25.66 13.64 26.32 15 27 C15 28.32 15 29.64 15 31 C13.35 31.33 11.7 31.66 10 32 C8.875 27.25 8.875 27.25 10 25 C6.87802522 26.3089572 6.87802522 26.3089572 5 29 C5.66 29.33 6.32 29.66 7 30 C7.495 30.99 7.495 30.99 8 32 C6.68 32 5.36 32 4 32 C4 32.66 4 33.32 4 34 C3.01 33.67 2.02 33.34 1 33 C1.33 31.02 1.66 29.04 2 27 C0.02 27 -1.96 27 -4 27 C-4.66 28.98 -5.32 30.96 -6 33 C-6.66 32.34 -7.32 31.68 -8 31 C-12.32938595 38.36916758 -16.49225518 45.78980234 -20.3125 53.4375 C-20.63734375 54.08654297 -20.9621875 54.73558594 -21.296875 55.40429688 C-26.0248733 64.26034575 -26.0248733 64.26034575 -27 74 C-24.46754913 76.53245087 -22.85676103 76.25188746 -19.40138245 76.29327393 C-18.6200444 76.29236755 -17.83870636 76.29146118 -17.03369141 76.29052734 C-16.21077103 76.29724457 -15.38785065 76.30396179 -14.53999329 76.31088257 C-11.81045549 76.32993261 -9.0811627 76.33379037 -6.3515625 76.3359375 C-4.45828143 76.34236094 -2.56500136 76.34908895 -0.67172241 76.35610962 C3.30123191 76.36810018 7.27409917 76.37178866 11.24707031 76.37060547 C16.34068604 76.37040226 21.4337439 76.39769793 26.5272274 76.43214989 C30.43914356 76.4543774 34.35092464 76.45844427 38.26289749 76.45738602 C40.14080349 76.45974849 42.01871286 76.46860822 43.89655685 76.48405075 C46.52307013 76.50362566 49.14836994 76.49790644 51.77490234 76.48583984 C52.55219193 76.49707886 53.32948151 76.50831787 54.13032532 76.51989746 C57.63914256 76.47889033 59.64056762 76.26192974 62.51211548 74.16934204 C64.29694635 71.99920531 64.29694635 71.99920531 64.03125 68.8046875 C62.77114957 64.15568063 60.82776849 60.3200945 58.5 56.125 C57.59628622 54.45446384 56.692642 52.78389005 55.7890625 51.11328125 C55.32790039 50.26975098 54.86673828 49.4262207 54.39160156 48.55712891 C52.18134319 44.49568221 50.03076775 40.40304309 47.875 36.3125 C47.1228003 34.89171288 46.3702362 33.47111857 45.6171875 32.05078125 C45.08351563 31.04402344 44.54984375 30.03726563 44 29 C39.14566633 30.57998195 34.41964947 32.39182865 29.68359375 34.29296875 C26.70599769 35.07745912 24.9320573 34.83242856 22 34 C22 32.02 22 30.04 22 28 C24.3125 27.375 24.3125 27.375 27 27 C27.99 27.66 28.98 28.32 30 29 C30.99 27.35 31.98 25.7 33 24 C33.61875 24.165 34.2375 24.33 34.875 24.5 C36.96063386 25.07634644 36.96063386 25.07634644 39 25 C39 24.34 39 23.68 39 23 C37.515 22.505 37.515 22.505 36 22 C36.33 21.34 36.66 20.68 37 20 C35.515 19.505 35.515 19.505 34 19 C34 18.34 34 17.68 34 17 C34.99 16.01 35.98 15.02 37 14 C34.03 13.67 31.06 13.34 28 13 C28.33 11.35 28.66 9.7 29 8 C32.04386724 7.91773332 34.07175348 8.02391783 37 9 C37.66 8.34 38.32 7.68 39 7 C39.69222656 8.51013672 39.69222656 8.51013672 40.3984375 10.05078125 C44.45350431 18.82091922 48.73384927 27.42963784 53.27563477 35.95776367 C56.3835516 41.79940199 59.38018354 47.6868968 62.29492188 53.62719727 C64.05250528 57.18921477 65.93427318 60.60919911 68 64 C70.40091901 68.29379373 70.89531359 71.11647134 70 76 C66.79843621 79.47318218 64.60926329 81.25057479 59.85740662 81.63491821 C58.2534298 81.66441392 56.64880398 81.66673626 55.04467773 81.64697266 C54.16425812 81.65573425 53.2838385 81.66449585 52.3767395 81.67352295 C49.47851686 81.69545587 46.58183077 81.68098731 43.68359375 81.6640625 C41.66390186 81.66743209 39.64421194 81.6722859 37.62452698 81.67855835 C33.39703007 81.68592115 29.17006225 81.67524195 24.94262695 81.65185547 C19.52617825 81.62334999 14.11096731 81.63978697 8.69456387 81.66971779 C4.5260537 81.68779105 0.35783673 81.68203287 -3.8106823 81.66907883 C-5.80776046 81.66574585 -7.80486533 81.66982806 -9.80191231 81.68147659 C-12.59334914 81.6941877 -15.38278442 81.67480587 -18.17407227 81.64697266 C-19.4093441 81.66215439 -19.4093441 81.66215439 -20.66957092 81.67764282 C-24.88858444 81.59977251 -26.55058146 81.34211835 -30.01841736 78.70223999 C-32.21356208 75.70877016 -32.64014451 73.73321229 -32.390625 70.03027344 C-31.74217867 66.65997365 -30.23355643 64.06537841 -28.5 61.125 C-25.32849077 55.5571607 -22.54037232 49.94540099 -20 44.0625 C-17.45514384 38.1987012 -14.78031616 32.44403101 -11.875 26.75 C-7.43172055 18.02792686 -3.6123261 9.09833537 0 0 Z " fill="#F2F2F2" transform="translate(81,99)"/>
<path d="M0 0 C12.21 0 24.42 0 37 0 C37 0.33 37 0.66 37 1 C35.02 1 33.04 1 31 1 C31.00444122 1.59690643 31.00888245 2.19381287 31.01345825 2.80880737 C31.05760581 9.00516371 31.08783059 15.20147558 31.10986328 21.39794922 C31.11993892 23.71242079 31.13359975 26.02687959 31.15087891 28.34130859 C31.17505865 31.66246693 31.1864673 34.9834574 31.1953125 38.3046875 C31.20563507 39.34430634 31.21595764 40.38392517 31.22659302 41.45504761 C31.22674408 42.41589264 31.22689514 43.37673767 31.22705078 44.36669922 C31.231492 45.21497284 31.23593323 46.06324646 31.24050903 46.93722534 C31 49 31 49 29 51 C29 50.34 29 49.68 29 49 C28.34 49 27.68 49 27 49 C27.33 48.01 27.66 47.02 28 46 C28 45.01 28 44.02 28 43 C26.35 42.67 24.7 42.34 23 42 C22.67 42.99 22.34 43.98 22 45 C19.4375 46.1875 19.4375 46.1875 17 47 C16 46 16 46 15.9375 43.4375 C15.958125 42.633125 15.97875 41.82875 16 41 C15.401875 40.896875 14.80375 40.79375 14.1875 40.6875 C11.71756736 39.91123545 10.67748765 38.92911079 9 37 C10.65 37 12.3 37 14 37 C14.165 36.360625 14.33 35.72125 14.5 35.0625 C16 33 16 33 17.84375 32.58203125 C19.26798598 32.44528395 20.69584558 32.34174267 22.125 32.2734375 C24.24316208 32.15528132 24.24316208 32.15528132 26 30 C26.41666667 26.5 26.41666667 26.5 26 23 C23.10538099 20.63860698 23.10538099 20.63860698 19.4375 21.1875 C15.74174248 21.64839762 15.74174248 21.64839762 14 25 C12.68 25 11.36 25 10 25 C9.67 25.66 9.34 26.32 9 27 C8.34 27 7.68 27 7 27 C7 27.99 7 28.98 7 30 C7.66 30 8.32 30 9 30 C9 29.34 9 28.68 9 28 C9.66 28.33 10.32 28.66 11 29 C9.02 32.465 9.02 32.465 7 36 C6.34 36 5.68 36 5 36 C5 24.45 5 12.9 5 1 C3.35 1 1.7 1 0 1 C0 0.67 0 0.34 0 0 Z " fill="#EDEEEE" transform="translate(81,39)"/>
<path d="M0 0 C1.98 0 3.96 0 6 0 C6 0.33 6 0.66 6 1 C4.35 1 2.7 1 1 1 C1.33 18.16 1.66 35.32 2 53 C-2 53 -2 53 -4.75 50.5 C-5.4925 49.675 -6.235 48.85 -7 48 C-7.2165625 48.928125 -7.2165625 48.928125 -7.4375 49.875 C-8 52 -8 52 -9 54 C-8.34 54 -7.68 54 -7 54 C-7 55.32 -7 56.64 -7 58 C-6.34 58.99 -5.68 59.98 -5 61 C-4.65492526 63.76059793 -4.64801588 65.36202878 -6 67.8125 C-9.19791818 69.71126392 -12.38698589 69.67744014 -16 69 C-18.45636081 66.92744557 -18.88864581 65.63630966 -19.4375 62.5 C-18.86218363 59.2124779 -17.57634853 58.04592383 -15 56 C-14.34 56 -13.68 56 -13 56 C-13 54.68 -13 53.36 -13 52 C-14.485 52.495 -14.485 52.495 -16 53 C-18.6875 52.5625 -18.6875 52.5625 -21 52 C-21.33 52.66 -21.66 53.32 -22 54 C-22.66 54 -23.32 54 -24 54 C-23.505 51.03 -23.505 51.03 -23 48 C-23.66 47.67 -24.32 47.34 -25 47 C-25.35050464 41.158256 -25.16727335 37.1468192 -22 32 C-21.01 32.33 -20.02 32.66 -19 33 C-19 33.66 -19 34.32 -19 35 C-18.34 35 -17.68 35 -17 35 C-17 34.01 -17 33.02 -17 32 C-17.66 32 -18.32 32 -19 32 C-18.76051435 27.29011551 -18.59162968 24.85264278 -15.875 20.9375 C-13 19 -13 19 -9.3125 19.0625 C-6 20 -6 20 -4 22 C-3.4589372 27.95169082 -3.4589372 27.95169082 -5 30.9375 C-8.26642246 32.67278693 -11.34351452 32.17982715 -15 32 C-14.67 32.99 -14.34 33.98 -14 35 C-17 37 -17 37 -21 37 C-20.030625 37.391875 -19.06125 37.78375 -18.0625 38.1875 C-15 40 -15 40 -14.125 42.6875 C-14.08375 43.450625 -14.0425 44.21375 -14 45 C-11.525 44.505 -11.525 44.505 -9 44 C-8.67 42.68 -8.34 41.36 -8 40 C-5.625 40.1875 -5.625 40.1875 -3 41 C-1.6875 43.5625 -1.6875 43.5625 -1 46 C-1.66 46 -2.32 46 -3 46 C-3.33 46.66 -3.66 47.32 -4 48 C-3.01 48 -2.02 48 -1 48 C-0.67 32.16 -0.34 16.32 0 0 Z " fill="#ADABAB" transform="translate(112,40)"/>
<path d="M0 0 C1.52232488 2.28348732 2.82812078 4.47039321 4.1015625 6.88671875 C4.5052002 7.65201904 4.90883789 8.41731934 5.32470703 9.20581055 C5.75380371 10.02476807 6.18290039 10.84372559 6.625 11.6875 C7.07085449 12.53675049 7.51670898 13.38600098 7.97607422 14.26098633 C12.08928408 22.122489 16.06504564 30.04819432 20 38 C21.41401191 40.85549307 22.83123415 43.70936653 24.25 46.5625 C24.56727051 47.20533936 24.88454102 47.84817871 25.21142578 48.51049805 C26.78951631 51.68367903 28.43738081 54.76627077 30.25 57.8125 C32 61 32 61 31.75 63.4375 C31.5025 63.953125 31.255 64.46875 31 65 C30.34 65 29.68 65 29 65 C29 64.34 29 63.68 29 63 C28.34 63 27.68 63 27 63 C26.52691406 61.9584375 26.05382812 60.916875 25.56640625 59.84375 C21.74987764 51.53781965 17.72680084 43.44477173 13.14672852 35.53125 C10.58367144 31.09962652 8.25525498 26.59685982 6 22 C3.077098 22.94796822 0.18535778 23.92656146 -2.671875 25.05859375 C-3.62578125 25.43113281 -4.5796875 25.80367187 -5.5625 26.1875 C-6.47128906 26.55230469 -7.38007812 26.91710937 -8.31640625 27.29296875 C-11.29400231 28.07745912 -13.0679427 27.83242856 -16 27 C-16 25.02 -16 23.04 -16 21 C-13.6875 20.375 -13.6875 20.375 -11 20 C-10.01 20.66 -9.02 21.32 -8 22 C-7.01 20.35 -6.02 18.7 -5 17 C-4.38125 17.165 -3.7625 17.33 -3.125 17.5 C-1.03936614 18.07634644 -1.03936614 18.07634644 1 18 C1 17.34 1 16.68 1 16 C0.01 15.67 -0.98 15.34 -2 15 C-1.67 14.34 -1.34 13.68 -1 13 C-1.99 12.67 -2.98 12.34 -4 12 C-4 11.34 -4 10.68 -4 10 C-3.01 9.01 -2.02 8.02 -1 7 C-3.97 6.67 -6.94 6.34 -10 6 C-9.67 4.35 -9.34 2.7 -9 1 C-5.95613276 0.91773332 -3.92824652 1.02391783 -1 2 C-0.67 1.34 -0.34 0.68 0 0 Z " fill="#E7E6E6" transform="translate(119,106)"/>
<path d="M0 0 C1.9375 0.8125 1.9375 0.8125 4 2 C4.33 2.99 4.66 3.98 5 5 C6.65 5 8.3 5 10 5 C10.70304222 6.72290605 11.38683491 8.45367466 12.0625 10.1875 C12.63677734 11.63189453 12.63677734 11.63189453 13.22265625 13.10546875 C14.05622133 16.20934675 13.88679818 17.94919117 13 21 C10.36 20.67 7.72 20.34 5 20 C4.67 21.32 4.34 22.64 4 24 C5.670625 23.9690625 5.670625 23.9690625 7.375 23.9375 C11 24 11 24 13 25 C12.67 25.99 12.34 26.98 12 28 C11.34 28 10.68 28 10 28 C10.495 28.45375 10.99 28.9075 11.5 29.375 C13 31 13 31 13 33 C14.45833358 34.62514468 14.45833358 34.62514468 16 36 C15.34 36.66 14.68 37.32 14 38 C13.34 37.34 12.68 36.68 12 36 C10.01643517 35.28591666 8.01684563 34.61382258 6 34 C6 33.01 6 32.02 6 31 C5.01 30.67 4.02 30.34 3 30 C3 29.34 3 28.68 3 28 C2.34 28 1.68 28 1 28 C1.20625 29.11375 1.4125 30.2275 1.625 31.375 C1.74875 32.57125 1.8725 33.7675 2 35 C1.34 35.66 0.68 36.32 0 37 C-2.625 36.625 -2.625 36.625 -5 36 C-5.495 34.515 -5.495 34.515 -6 33 C-6.66 33 -7.32 33 -8 33 C-9.0625 31.125 -9.0625 31.125 -10 29 C-9.67 28.34 -9.34 27.68 -9 27 C-9.99 27 -10.98 27 -12 27 C-11.5625 24.625 -11.5625 24.625 -10 22 C-7.70258524 21.21392803 -5.4941632 20.81163775 -3.09375 20.45703125 C-0.79200107 20.15202829 -0.79200107 20.15202829 1 18 C0.69903201 13.86169011 0.32101984 11.48152976 -2 8 C-1.34 8 -0.68 8 0 8 C0 7.34 0 6.68 0 6 C-0.66 6 -1.32 6 -2 6 C-1.34 4.02 -0.68 2.04 0 0 Z " fill="#F2F2F2" transform="translate(105,88)"/>
<path d="M0 0 C7.75 0.75 7.75 0.75 10 3 C9.625 5.125 9.625 5.125 9 7 C6.23735711 7.59732819 3.83967231 8 1 8 C1.49756092 10.75641416 1.49756092 10.75641416 3 13 C3.99 12.01 4.98 11.02 6 10 C9.97674419 13.85623679 9.97674419 13.85623679 10.04296875 17.11328125 C9.7798228 19.08863015 9.39718314 21.04718291 9 23 C9.66 23 10.32 23 11 23 C11 23.66 11 24.32 11 25 C12.32 25.66 13.64 26.32 15 27 C15 28.32 15 29.64 15 31 C13.35 31.33 11.7 31.66 10 32 C8.875 27.25 8.875 27.25 10 25 C6.87802522 26.3089572 6.87802522 26.3089572 5 29 C5.66 29.33 6.32 29.66 7 30 C7.33 30.66 7.66 31.32 8 32 C6.68 32 5.36 32 4 32 C4 32.66 4 33.32 4 34 C3.01 33.67 2.02 33.34 1 33 C1.33 31.02 1.66 29.04 2 27 C1.34 27 0.68 27 0 27 C-1 24 -1 24 -1 23 C-1.66 22.67 -2.32 22.34 -3 22 C-2.34 20.35 -1.68 18.7 -1 17 C-2.65 17.66 -4.3 18.32 -6 19 C-7 17 -7 17 -6.47094727 15.21240234 C-6.17244873 14.51066895 -5.8739502 13.80893555 -5.56640625 13.0859375 C-5.24736328 12.32539062 -4.92832031 11.56484375 -4.59960938 10.78125 C-4.25736328 9.9871875 -3.91511719 9.193125 -3.5625 8.375 C-3.22412109 7.57320313 -2.88574219 6.77140625 -2.53710938 5.9453125 C-1.69833222 3.96060036 -0.85004755 1.97991125 0 0 Z " fill="#E9E8E8" transform="translate(81,99)"/>
<path d="M0 0 C3.3125 0.9375 3.3125 0.9375 5.3125 2.9375 C5.8535628 8.88919082 5.8535628 8.88919082 4.3125 11.875 C1.04607754 13.61028693 -2.03101452 13.11732715 -5.6875 12.9375 C-5.3575 13.9275 -5.0275 14.9175 -4.6875 15.9375 C-7.6875 17.9375 -7.6875 17.9375 -11.6875 17.9375 C-10.73875 18.288125 -9.79 18.63875 -8.8125 19 C-5.6875 20.9375 -5.6875 20.9375 -4.3125 24.3125 C-3.79658202 27.30482431 -3.50453713 29.91861266 -3.6875 32.9375 C-6.97726808 34.03408936 -8.40053767 33.73703138 -11.6875 32.9375 C-12.0175 33.5975 -12.3475 34.2575 -12.6875 34.9375 C-13.3475 34.9375 -14.0075 34.9375 -14.6875 34.9375 C-14.1925 31.9675 -14.1925 31.9675 -13.6875 28.9375 C-14.3475 28.6075 -15.0075 28.2775 -15.6875 27.9375 C-16.03800464 22.095756 -15.85477335 18.0843192 -12.6875 12.9375 C-11.6975 13.2675 -10.7075 13.5975 -9.6875 13.9375 C-9.6875 14.5975 -9.6875 15.2575 -9.6875 15.9375 C-9.0275 15.9375 -8.3675 15.9375 -7.6875 15.9375 C-7.6875 14.9475 -7.6875 13.9575 -7.6875 12.9375 C-8.3475 12.9375 -9.0075 12.9375 -9.6875 12.9375 C-9.44801435 8.22761551 -9.27912968 5.79014278 -6.5625 1.875 C-3.6875 -0.0625 -3.6875 -0.0625 0 0 Z " fill="#F0F0F0" transform="translate(102.6875,59.0625)"/>
<path d="M0 0 C12.21 0 24.42 0 37 0 C37 0.33 37 0.66 37 1 C35.02 1 33.04 1 31 1 C31 7.6 31 14.2 31 21 C28 18 28 18 27.875 15 C27.91625 14.01 27.9575 13.02 28 12 C27.67 11.01 27.34 10.02 27 9 C26.01 8.67 25.02 8.34 24 8 C24 7.01 24 6.02 24 5 C23.01 5.495 23.01 5.495 22 6 C22 6.66 22 7.32 22 8 C21.34 8 20.68 8 20 8 C19.67 7.34 19.34 6.68 19 6 C13.26133714 6.24126997 13.26133714 6.24126997 8.5 9.0625 C8.005 9.701875 7.51 10.34125 7 11 C6.34 10.67 5.68 10.34 5 10 C5 7.03 5 4.06 5 1 C3.35 1 1.7 1 0 1 C0 0.67 0 0.34 0 0 Z " fill="#F5F4F4" transform="translate(81,39)"/>
<path d="M0 0 C-0.33 1.65 -0.66 3.3 -1 5 C-0.01 5.33 0.98 5.66 2 6 C1.67 6.99 1.34 7.98 1 9 C0.175 9.28875 -0.65 9.5775 -1.5 9.875 C-2.325 10.24625 -3.15 10.6175 -4 11 C-4.89386164 13.54775306 -4.89386164 13.54775306 -5 16 C-5.66 15.34 -6.32 14.68 -7 14 C-11.32938595 21.36916758 -15.49225518 28.78980234 -19.3125 36.4375 C-19.63734375 37.08654297 -19.9621875 37.73558594 -20.296875 38.40429688 C-22.34477367 42.5468305 -24.21290615 46.73846851 -26 51 C-26.66 50.01 -27.32 49.02 -28 48 C-24.92706876 34.35446616 -16.42490993 20.46573931 -10.0625 8.0625 C-9.53354126 6.99938599 -9.53354126 6.99938599 -8.99389648 5.91479492 C-6.53361432 1.23596523 -6.53361432 1.23596523 -3.87109375 0.05859375 C-2.58121366 0.01820085 -1.29051239 0 0 0 Z " fill="#E0DFE0" transform="translate(80,116)"/>
<path d="M0 0 C5.71428571 0.71428571 5.71428571 0.71428571 7 2 C7.04080783 3.99958364 7.04254356 6.00045254 7 8 C7.66 8 8.32 8 9 8 C9 8.66 9 9.32 9 10 C10.32 10.66 11.64 11.32 13 12 C13 13.32 13 14.64 13 16 C11.35 16.33 9.7 16.66 8 17 C6.875 12.25 6.875 12.25 8 10 C4.87802522 11.3089572 4.87802522 11.3089572 3 14 C3.66 14.33 4.32 14.66 5 15 C5.33 15.66 5.66 16.32 6 17 C4.68 17 3.36 17 2 17 C2 17.66 2 18.32 2 19 C1.01 18.67 0.02 18.34 -1 18 C-0.67 16.02 -0.34 14.04 0 12 C-0.66 12 -1.32 12 -2 12 C-3 9 -3 9 -2 6 C-1.835 5.13375 -1.67 4.2675 -1.5 3.375 C-1 1 -1 1 0 0 Z " fill="#E2E2E2" transform="translate(83,114)"/>
<path d="M0 0 C3.4375 1 3.4375 1 5.375 2.75 C6.649827 5.44963365 6.89147485 7.04916349 6.4375 10 C5.4375 11.8125 5.4375 11.8125 3.4375 13 C0.68189686 13.47074887 -1.81127554 13.51585459 -4.5625 13 C-7.01886081 10.92744557 -7.45114581 9.63630966 -8 6.5 C-7.5625 4 -7.5625 4 -6 1.625 C-3.5625 0 -3.5625 0 0 0 Z " fill="#231F20" transform="translate(100.5625,96)"/>
<path d="M0 0 C0 0.66 0 1.32 0 2 C0.66 2 1.32 2 2 2 C1.67 1.01 1.34 0.02 1 -1 C1.99 -1 2.98 -1 4 -1 C4.33 -0.01 4.66 0.98 5 2 C5.70125 2.639375 6.4025 3.27875 7.125 3.9375 C9 6 9 6 9.125 8.125 C7.4121231 10.97979484 5.11293538 11.20520799 2 12 C2 11.34 2 10.68 2 10 C1.34 9.67 0.68 9.34 0 9 C0.66 9 1.32 9 2 9 C1.67 8.01 1.34 7.02 1 6 C0.484375 6.33 -0.03125 6.66 -0.5625 7 C-3.78026512 8.32010877 -6.5570528 8.13242105 -10 8 C-10.625 5.125 -10.625 5.125 -11 2 C-7.75267347 -1.24732653 -4.25451414 -1.41817138 0 0 Z " fill="#DBDBDB" transform="translate(101,45)"/>
<path d="M0 0 C3.375 0.875 3.375 0.875 5.375 2.875 C5.92087156 8.87958716 5.92087156 8.87958716 4.3125 11.8125 C1.25523824 13.4890629 -1.2156288 13.24028977 -4.625 12.875 C-6.5625 11.75 -6.5625 11.75 -7.625 9.875 C-8.16352618 6.25918138 -8.04736225 4.53388511 -6.0625 1.4375 C-3.625 -0.125 -3.625 -0.125 0 0 Z " fill="#232122" transform="translate(102.625,59.125)"/>
<path d="M0 0 C0.99 0 1.98 0 3 0 C3.66 1.65 4.32 3.3 5 5 C2.94072044 5.98592155 0.87743312 6.96347494 -1.1875 7.9375 C-2.33605469 8.48277344 -3.48460938 9.02804688 -4.66796875 9.58984375 C-9.09496026 11.46340053 -12.36256144 12.54581285 -17 11 C-17 9.02 -17 7.04 -17 5 C-14.6875 4.375 -14.6875 4.375 -12 4 C-11.01 4.66 -10.02 5.32 -9 6 C-8.01 4.35 -7.02 2.7 -6 1 C-5.38125 1.165 -4.7625 1.33 -4.125 1.5 C-2.03936614 2.07634644 -2.03936614 2.07634644 0 2 C0 1.34 0 0.68 0 0 Z " fill="#E0DEDF" transform="translate(120,122)"/>
<path d="M0 0 C0.99 0.33 1.98 0.66 3 1 C3.6875 3.0625 3.6875 3.0625 4 5 C5.98 5 7.96 5 10 5 C10 5.33 10 5.66 10 6 C8.35 6 6.7 6 5 6 C4.67 6.66 4.34 7.32 4 8 C3.67 7.01 3.34 6.02 3 5 C2.34 5 1.68 5 1 5 C1.99 6.485 1.99 6.485 3 8 C3 8.99 3 9.98 3 11 C4.98 11 6.96 11 9 11 C9.33 11.66 9.66 12.32 10 13 C9.01 14.485 9.01 14.485 8 16 C6.68 16 5.36 16 4 16 C3.67 16.66 3.34 17.32 3 18 C2.34 18 1.68 18 1 18 C1 18.99 1 19.98 1 21 C1.66 21 2.32 21 3 21 C3 20.34 3 19.68 3 19 C3.66 19.33 4.32 19.66 5 20 C3.68 22.31 2.36 24.62 1 27 C0.34 27 -0.32 27 -1 27 C-1.02886537 22.68751391 -1.04675255 18.37505238 -1.0625 14.0625 C-1.07087891 12.83080078 -1.07925781 11.59910156 -1.08789062 10.33007812 C-1.09111328 9.16025391 -1.09433594 7.99042969 -1.09765625 6.78515625 C-1.10289307 5.70113525 -1.10812988 4.61711426 -1.11352539 3.50024414 C-1 1 -1 1 0 0 Z " fill="#EFEFEF" transform="translate(87,48)"/>
<path d="M0 0 C-1.32 0.33 -2.64 0.66 -4 1 C-3.2575 1.680625 -3.2575 1.680625 -2.5 2.375 C-1 4 -1 4 -1 6 C-1.99 6.495 -1.99 6.495 -3 7 C-3.33 7.99 -3.66 8.98 -4 10 C-3.34 10 -2.68 10 -2 10 C-2 9.01 -2 8.02 -2 7 C-0.625 5.3125 -0.625 5.3125 1 4 C1.66 4 2.32 4 3 4 C2.34 5.65 1.68 7.3 1 9 C1.99 9 2.98 9 4 9 C4.625 11.375 4.625 11.375 5 14 C4.34 14.66 3.68 15.32 3 16 C0.375 15.625 0.375 15.625 -2 15 C-2.33 14.01 -2.66 13.02 -3 12 C-3.66 12 -4.32 12 -5 12 C-6.0625 10.125 -6.0625 10.125 -7 8 C-6.67 7.34 -6.34 6.68 -6 6 C-6.99 6 -7.98 6 -9 6 C-7.01260984 0.46369883 -5.82303895 -0.15323787 0 0 Z " fill="#E2E1E2" transform="translate(102,109)"/>
<path d="M0 0 C1.58971965 2.38457948 2.86741593 4.6304124 4.125 7.1875 C4.47820312 7.90292969 4.83140625 8.61835937 5.1953125 9.35546875 C5.46085937 9.89816406 5.72640625 10.44085938 6 11 C4.35 11.33 2.7 11.66 1 12 C1 11.34 1 10.68 1 10 C0.34 10 -0.32 10 -1 10 C-0.01 11.485 -0.01 11.485 1 13 C1 13.99 1 14.98 1 16 C0.01 15.67 -0.98 15.34 -2 15 C-1.67 14.34 -1.34 13.68 -1 13 C-1.99 12.67 -2.98 12.34 -4 12 C-4 11.34 -4 10.68 -4 10 C-3.01 9.01 -2.02 8.02 -1 7 C-3.97 6.67 -6.94 6.34 -10 6 C-9.67 4.35 -9.34 2.7 -9 1 C-5.95613276 0.91773332 -3.92824652 1.02391783 -1 2 C-0.67 1.34 -0.34 0.68 0 0 Z " fill="#EAEAEA" transform="translate(119,106)"/>
<path d="M0 0 C0.99 0 1.98 0 3 0 C2.49396008 2.16874252 2.00016187 3.99967627 1 6 C1.66 6 2.32 6 3 6 C3 5.34 3 4.68 3 4 C3.99 4 4.98 4 6 4 C6 4.66 6 5.32 6 6 C6.66 6 7.32 6 8 6 C7.3125 8.875 7.3125 8.875 6 12 C3.375 13.375 3.375 13.375 1 14 C0 13 0 13 -0.0625 10.4375 C-0.041875 9.633125 -0.02125 8.82875 0 8 C-0.598125 7.896875 -1.19625 7.79375 -1.8125 7.6875 C-4.28243264 6.91123545 -5.32251235 5.92911079 -7 4 C-5.35 4 -3.7 4 -2 4 C-1.34 2.68 -0.68 1.36 0 0 Z " fill="#F3F5F4" transform="translate(97,72)"/>
<path d="M0 0 C0 1.98 0 3.96 0 6 C4.25731568 6.40749675 4.25731568 6.40749675 7.875 4.5 C8.24625 4.005 8.6175 3.51 9 3 C9 3.99 9 4.98 9 6 C9.99 6.33 10.98 6.66 12 7 C12 7.66 12 8.32 12 9 C13.32 9.33 14.64 9.66 16 10 C7.42 10 -1.16 10 -10 10 C-8.68 9.67 -7.36 9.34 -6 9 C-6 8.34 -6 7.68 -6 7 C-5.34 6.34 -4.68 5.68 -4 5 C-4 3.68 -4 2.36 -4 1 C-2 0 -2 0 0 0 Z " fill="#F1F1F1" transform="translate(91,124)"/>
<path d="M0 0 C1.32 0.33 2.64 0.66 4 1 C3.34 1 2.68 1 2 1 C1.34 2.65 0.68 4.3 0 6 C1.65 5.67 3.3 5.34 5 5 C4.4740625 5.8971875 4.4740625 5.8971875 3.9375 6.8125 C2.66695302 9.10813214 2.66695302 9.10813214 4 12 C4.66 12 5.32 12 6 12 C5 14 5 14 3 15 C3.66 15.33 4.32 15.66 5 16 C5 16.66 5 17.32 5 18 C3 17 1 16 -1 15 C-1 14.34 -1 13.68 -1 13 C-1.66 13 -2.32 13 -3 13 C-3.27429625 7.60550707 -3.36055646 4.48074195 0 0 Z " fill="#FAF9F9" transform="translate(93,109)"/>
<path d="M0 0 C1.9375 0.8125 1.9375 0.8125 4 2 C4.33 2.99 4.66 3.98 5 5 C7.01508358 5.73323796 7.01508358 5.73323796 9 6 C8.67 6.99 8.34 7.98 8 9 C7.34 9 6.68 9 6 9 C5.67 9.99 5.34 10.98 5 12 C2.97954558 11.39816251 0.97888961 10.72693904 -1 10 C-1.33 9.34 -1.66 8.68 -2 8 C-1.34 8 -0.68 8 0 8 C0 7.34 0 6.68 0 6 C-0.66 6 -1.32 6 -2 6 C-1.34 4.02 -0.68 2.04 0 0 Z " fill="#F3F3F3" transform="translate(105,88)"/>
<path d="M0 0 C3 1 3 1 4.75 3.625 C6.23518688 7.63500457 6.10467219 9.89693187 5 14 C4.01 14.66 3.02 15.32 2 16 C1.01 15.34 0.02 14.68 -1 14 C-0.34 13.67 0.32 13.34 1 13 C1.33 12.01 1.66 11.02 2 10 C1.34 9.67 0.68 9.34 0 9 C0.66 8.34 1.32 7.68 2 7 C0.35 6.67 -1.3 6.34 -3 6 C-2 4 -1 2 0 0 Z " fill="#2C2829" transform="translate(140,159)"/>
<path d="M0 0 C1.90389849 2.85584773 2.69462177 4.9311762 3.625 8.1875 C3.88539062 9.08855469 4.14578125 9.98960938 4.4140625 10.91796875 C4.60742188 11.60503906 4.80078125 12.29210937 5 13 C4.01 13.495 4.01 13.495 3 14 C1 13 1 13 -0.125 9.9375 C-0.41375 8.968125 -0.7025 7.99875 -1 7 C-1.45375 7.495 -1.9075 7.99 -2.375 8.5 C-4 10 -4 10 -6 10 C-6.33 10.66 -6.66 11.32 -7 12 C-7.66 9.69 -8.32 7.38 -9 5 C-8.34 4.67 -7.68 4.34 -7 4 C-6.67 4.66 -6.34 5.32 -6 6 C-5.34 6 -4.68 6 -4 6 C-3.67 5.34 -3.34 4.68 -3 4 C-2.34 4 -1.68 4 -1 4 C-0.67 2.68 -0.34 1.36 0 0 Z " fill="#DFDFDF" transform="translate(114,93)"/>
<path d="M0 0 C0.99 0.33 1.98 0.66 3 1 C2.67 3.64 2.34 6.28 2 9 C2.66 9 3.32 9 4 9 C4 9.99 4 10.98 4 12 C2 12 2 12 0.375 10.5 C-0.07875 10.005 -0.5325 9.51 -1 9 C-1.2165625 9.928125 -1.2165625 9.928125 -1.4375 10.875 C-2 13 -2 13 -3 15 C-3.06996014 16.70702735 -3.08440154 18.41668003 -3.0625 20.125 C-3.05347656 21.03507812 -3.04445313 21.94515625 -3.03515625 22.8828125 C-3.02355469 23.58148438 -3.01195313 24.28015625 -3 25 C-3.66 25 -4.32 25 -5 25 C-5 20.71 -5 16.42 -5 12 C-4.34 12 -3.68 12 -3 12 C-2.87625 11.401875 -2.7525 10.80375 -2.625 10.1875 C-2 8 -2 8 0 5 C-0.33 5.33 -0.66 5.66 -1 6 C-1.66 6 -2.32 6 -3 6 C-3 5.01 -3 4.02 -3 3 C-2.34 3 -1.68 3 -1 3 C-0.67 2.01 -0.34 1.02 0 0 Z " fill="#F7F7F7" transform="translate(91,63)"/>
<path d="M0 0 C6.27 0 12.54 0 19 0 C18.67 0.99 18.34 1.98 18 3 C17.34 3 16.68 3 16 3 C15.67 3.66 15.34 4.32 15 5 C14.67 4.34 14.34 3.68 14 3 C13.01 3.495 13.01 3.495 12 4 C11.01 4.33 10.02 4.66 9 5 C8.67 5.99 8.34 6.98 8 8 C5 4.375 5 4.375 5 1 C3.35 1 1.7 1 0 1 C0 0.67 0 0.34 0 0 Z " fill="#F0EFF0" transform="translate(81,39)"/>
<path d="M0 0 C3.125 0.375 3.125 0.375 6 1 C6.6875 3.3125 6.6875 3.3125 7 6 C5.875 7.875 5.875 7.875 4 9 C1.3125 8.6875 1.3125 8.6875 -1 8 C-1.625 5.125 -1.625 5.125 -2 2 C-1.34 1.34 -0.68 0.68 0 0 Z " fill="#2C2C2C" transform="translate(83,114)"/>
<path d="M0 0 C5.56818182 0.56818182 5.56818182 0.56818182 7 2 C7.125 4.5 7.125 4.5 7 7 C6 8 6 8 2.4375 8.0625 C1.303125 8.041875 0.16875 8.02125 -1 8 C-1.625 5.125 -1.625 5.125 -2 2 C-1.34 1.34 -0.68 0.68 0 0 Z " fill="#242324" transform="translate(92,45)"/>
<path d="M0 0 C0.99 0.33 1.98 0.66 3 1 C3.6875 3.0625 3.6875 3.0625 4 5 C5.98 5 7.96 5 10 5 C10 5.33 10 5.66 10 6 C8.35 6 6.7 6 5 6 C4.67 6.66 4.34 7.32 4 8 C3.67 7.01 3.34 6.02 3 5 C2.34 5 1.68 5 1 5 C1.99 6.485 1.99 6.485 3 8 C3 8.99 3 9.98 3 11 C4.98 11 6.96 11 9 11 C9.33 11.66 9.66 12.32 10 13 C9.34 13.66 8.68 14.32 8 15 C8 14.01 8 13.02 8 12 C7.01 12.33 6.02 12.66 5 13 C4.34 12.67 3.68 12.34 3 12 C2.67 12.99 2.34 13.98 2 15 C-0.41889075 10.06143138 -1.44999897 6.62498715 -1 1 C-0.67 0.67 -0.34 0.34 0 0 Z " fill="#E5E5E5" transform="translate(87,48)"/>
<path d="M0 0 C1.9375 0.1875 1.9375 0.1875 4 1 C5.25 3.0625 5.25 3.0625 6 5 C5.01 6.485 5.01 6.485 4 8 C4.66 8 5.32 8 6 8 C6 8.66 6 9.32 6 10 C3 11 3 11 0 10 C-0.19412181 8.52168779 -0.38012131 7.04230684 -0.5625 5.5625 C-0.66691406 4.73878906 -0.77132812 3.91507812 -0.87890625 3.06640625 C-0.91886719 2.38449219 -0.95882812 1.70257813 -1 1 C-0.67 0.67 -0.34 0.34 0 0 Z " fill="#E0E0E0" transform="translate(99,86)"/>
<path d="M0 0 C0.66 0 1.32 0 2 0 C4 3 4 3 4 6 C5.32 6 6.64 6 8 6 C7.67 6.99 7.34 7.98 7 9 C6.46375 8.67 5.9275 8.34 5.375 8 C2.42782633 6.75908477 0.17065216 6.79321834 -3 7 C-3.99 7.495 -3.99 7.495 -5 8 C-4.34 6.35 -3.68 4.7 -3 3 C-2.34 3 -1.68 3 -1 3 C-0.67 2.01 -0.34 1.02 0 0 Z " fill="#F7F7F7" transform="translate(111,100)"/>
<path d="M0 0 C-0.33 1.65 -0.66 3.3 -1 5 C-0.01 5.33 0.98 5.66 2 6 C1.67 6.99 1.34 7.98 1 9 C-1.66666667 9 -4.33333333 9 -7 9 C-6.67 6.36 -6.34 3.72 -6 1 C-3.92446352 0.4465236 -2.15634036 0 0 0 Z " fill="#F8F8F8" transform="translate(80,116)"/>
<path d="M0 0 C0.33 0 0.66 0 1 0 C0.67 3.63 0.34 7.26 0 11 C0.66 11 1.32 11 2 11 C2.45375 11.474375 2.9075 11.94875 3.375 12.4375 C5.22977487 14.22093737 6.50135592 14.5691993 9 15 C9.33 14.34 9.66 13.68 10 13 C10.33 13.99 10.66 14.98 11 16 C3.90225564 16.60150376 3.90225564 16.60150376 0 14 C-2.73490373 9.8976444 -2.5493667 7.86581934 -2 3 C-1.34 2.01 -0.68 1.02 0 0 Z " fill="#DCDCDC" transform="translate(51,164)"/>
<path d="M0 0 C1.67542976 0.28604898 3.34385343 0.61781233 5 1 C5.625 2.875 5.625 2.875 6 5 C5.34 5.66 4.68 6.32 4 7 C1.375 6.625 1.375 6.625 -1 6 C-1.042721 4.33388095 -1.04063832 2.66617115 -1 1 C-0.67 0.67 -0.34 0.34 0 0 Z " fill="#333333" transform="translate(85,100)"/>
<path d="M0 0 C0.66 0 1.32 0 2 0 C2.625 1.875 2.625 1.875 3 4 C2.34 4.66 1.68 5.32 1 6 C0.83322718 9.58343976 0.83322718 9.58343976 1 13 C-0.9375 12.4375 -0.9375 12.4375 -3 11 C-3.75 7.375 -3.75 7.375 -4 4 C-2.68 3.67 -1.36 3.34 0 3 C0 2.01 0 1.02 0 0 Z " fill="#E4E4E4" transform="translate(93,94)"/>
<path d="M0 0 C0.66 0.33 1.32 0.66 2 1 C1.34 2.98 0.68 4.96 0 7 C-0.66 7 -1.32 7 -2 7 C-2.33 7.99 -2.66 8.98 -3 10 C-3.99 10.33 -4.98 10.66 -6 11 C-5.57781184 9.3501725 -5.13675575 7.70516335 -4.6875 6.0625 C-4.44386719 5.14597656 -4.20023437 4.22945313 -3.94921875 3.28515625 C-3.47935547 2.15400391 -3.47935547 2.15400391 -3 1 C-2.01 0.67 -1.02 0.34 0 0 Z " fill="#DFDFDF" transform="translate(88,87)"/>
<path d="M0 0 C0.66 0.33 1.32 0.66 2 1 C1.49287967 4.71888239 0.88391785 7.73454239 -1 11 C-1.99 11 -2.98 11 -4 11 C-3.48964169 6.6109185 -2.47785723 3.66291938 0 0 Z " fill="#E5E5E5" transform="translate(65,136)"/>
<path d="M0 0 C0.66 0.33 1.32 0.66 2 1 C1.67 2.65 1.34 4.3 1 6 C1.99 6 2.98 6 4 6 C3.34 8.64 2.68 11.28 2 14 C1.67 14 1.34 14 1 14 C0.67 12.35 0.34 10.7 0 9 C-0.99 8.67 -1.98 8.34 -3 8 C-1.125 2.25 -1.125 2.25 0 0 Z " fill="#D3D2D2" transform="translate(73,118)"/>
<path d="M0 0 C0.66 0 1.32 0 2 0 C2 0.66 2 1.32 2 2 C3.65 1.67 5.3 1.34 7 1 C7.625 3.875 7.625 3.875 8 7 C7.34 7.66 6.68 8.32 6 9 C5.67 8.01 5.34 7.02 5 6 C4.01 6 3.02 6 2 6 C1.34 4.02 0.68 2.04 0 0 Z " fill="#F0F0F0" transform="translate(118,116)"/>
<path d="M0 0 C1.32 0.33 2.64 0.66 4 1 C2.94124926 4.40312738 1.99097846 7.01353231 0 10 C-0.99 10 -1.98 10 -3 10 C-2.01 6.7 -1.02 3.4 0 0 Z " fill="#DCDBDB" transform="translate(81,99)"/>
<path d="M0 0 C2.00720923 0.28674418 4.0085944 0.61866701 6 1 C5.67 2.32 5.34 3.64 5 5 C3.35 5.33 1.7 5.66 0 6 C-0.38218767 4.34385343 -0.71395102 2.67542976 -1 1 C-0.67 0.67 -0.34 0.34 0 0 Z " fill="#303030" transform="translate(101,119)"/>
<path d="M0 0 C1.65 0 3.3 0 5 0 C5.33 1.65 5.66 3.3 6 5 C4.35 5.33 2.7 5.66 1 6 C-0.0625 4.125 -0.0625 4.125 -1 2 C-0.67 1.34 -0.34 0.68 0 0 Z " fill="#2D2D2D" transform="translate(90,80)"/>
<path d="M0 0 C1.67542976 0.28604898 3.34385343 0.61781233 5 1 C5 2.65 5 4.3 5 6 C3.35 6 1.7 6 0 6 C-0.38218767 4.34385343 -0.71395102 2.67542976 -1 1 C-0.67 0.67 -0.34 0.34 0 0 Z " fill="#292929" transform="translate(104,126)"/>
<path d="M0 0 C3.2542015 2.83430453 4.5206753 4.68607774 5 9 C4.01 9.495 4.01 9.495 3 10 C0.40512445 8.70256222 -0.02269781 7.70637529 -1 5 C-0.625 2.25 -0.625 2.25 0 0 Z " fill="#E9E9E9" transform="translate(114,97)"/>
<path d="M0 0 C1.65 0 3.3 0 5 0 C5.5625 1.9375 5.5625 1.9375 6 4 C5 5 5 5 1.9375 5.0625 C0.4834375 5.0315625 0.4834375 5.0315625 -1 5 C-0.67 3.35 -0.34 1.7 0 0 Z " fill="#292929" transform="translate(110,107)"/>
<path d="M0 0 C1.89213369 2.38573379 3.02391783 4.07175348 4 7 C3.01 7 2.02 7 1 7 C1 7.66 1 8.32 1 9 C1.66 9 2.32 9 3 9 C2.67 9.99 2.34 10.98 2 12 C0.10786631 9.61426621 -1.02391783 7.92824652 -2 5 C-1.0625 2.3125 -1.0625 2.3125 0 0 Z " fill="#DCDCDC" transform="translate(132,132)"/>
<path d="M0 0 C1.67542976 0.28604898 3.34385343 0.61781233 5 1 C5 2.32 5 3.64 5 5 C3.35 5.33 1.7 5.66 0 6 C-0.38218767 4.34385343 -0.71395102 2.67542976 -1 1 C-0.67 0.67 -0.34 0.34 0 0 Z " fill="#363636" transform="translate(91,125)"/>
<path d="M0 0 C1.98 0.66 3.96 1.32 6 2 C5.01 3.485 5.01 3.485 4 5 C3.34 5 2.68 5 2 5 C1.67 5.99 1.34 6.98 1 8 C-0.5625 6.75 -0.5625 6.75 -2 5 C-1.74853421 2.86254078 -1.54074221 1.54074221 0 0 Z " fill="#F5F5F5" transform="translate(83,105)"/>
<path d="M0 0 C1.0625 1.875 1.0625 1.875 2 4 C1.67 4.66 1.34 5.32 1 6 C1.66 6.66 2.32 7.32 3 8 C2.34 9.32 1.68 10.64 1 12 C0.01 11.67 -0.98 11.34 -2 11 C-1.85892253 9.54119891 -1.71197585 8.08296449 -1.5625 6.625 C-1.48128906 5.81289062 -1.40007813 5.00078125 -1.31640625 4.1640625 C-1 2 -1 2 0 0 Z " fill="#2D2B2C" transform="translate(55,162)"/>
<path d="M0 0 C0 0.66 0 1.32 0 2 C-0.99 2 -1.98 2 -3 2 C-3.33 2.99 -3.66 3.98 -4 5 C-4.99 5.33 -5.98 5.66 -7 6 C-7.66 6.99 -8.32 7.98 -9 9 C-9.36337162 5.72965541 -9.28544288 4.39116247 -7.3125 1.6875 C-4.60883753 -0.28544288 -3.27034459 -0.36337162 0 0 Z " fill="#302D2D" transform="translate(102,96)"/>
<path d="M0 0 C1.67542976 0.28604898 3.34385343 0.61781233 5 1 C4.67 2.65 4.34 4.3 4 6 C2.68 6 1.36 6 0 6 C-0.38218767 4.34385343 -0.71395102 2.67542976 -1 1 C-0.67 0.67 -0.34 0.34 0 0 Z " fill="#323232" transform="translate(104,80)"/>
<path d="M0 0 C0.66 0.33 1.32 0.66 2 1 C2.625 3.5625 2.625 3.5625 3 6 C0.6875 6.6875 0.6875 6.6875 -2 7 C-3.8125 5.6875 -3.8125 5.6875 -5 4 C-5 3.34 -5 2.68 -5 2 C-3.68 2.33 -2.36 2.66 -1 3 C-0.67 2.01 -0.34 1.02 0 0 Z " fill="#2A2929" transform="translate(100,65)"/>
<path d="M0 0 C0.66 0.33 1.32 0.66 2 1 C2 2.65 2 4.3 2 6 C1.01 6.495 1.01 6.495 0 7 C-1.13350534 9.01669827 -1.13350534 9.01669827 -2 11 C-2.66 10.67 -3.32 10.34 -4 10 C-2.8905928 6.51329166 -1.73662334 3.22515763 0 0 Z " fill="#312F30" transform="translate(60,152)"/>
<path d="M0 0 C-0.66 1.65 -1.32 3.3 -2 5 C-1.01 5 -0.02 5 1 5 C0.67 5.66 0.34 6.32 0 7 C-1.32 7 -2.64 7 -4 7 C-4.99 8.485 -4.99 8.485 -6 10 C-6 9.34 -6 8.68 -6 8 C-6.66 8 -7.32 8 -8 8 C-8 7.34 -8 6.68 -8 6 C-7.01 6 -6.02 6 -5 6 C-5 5.01 -5 4.02 -5 3 C-2.55555556 0 -2.55555556 0 0 0 Z " fill="#D1D1D1" transform="translate(105,113)"/>
<path d="M0 0 C0.33 0 0.66 0 1 0 C2.27253436 3.64793184 3.32829194 7.1936543 4 11 C2.35 11.66 0.7 12.32 -1 13 C-0.34 11.35 0.32 9.7 1 8 C0.34 8 -0.32 8 -1 8 C-0.67 5.36 -0.34 2.72 0 0 Z " fill="#E1E1E1" transform="translate(94,64)"/>
<path d="M0 0 C1.32 0.33 2.64 0.66 4 1 C4 4.3 4 7.6 4 11 C0.09618178 7.09618178 0.43755817 5.33820964 0 0 Z " fill="#F5F4F4" transform="translate(108,61)"/>
<path d="M0 0 C0 0.66 0 1.32 0 2 C2.31 2 4.62 2 7 2 C7 2.66 7 3.32 7 4 C2.71 4 -1.58 4 -6 4 C-6 3.01 -6 2.02 -6 1 C-3 0 -3 0 0 0 Z " fill="#F7F7F7" transform="translate(83,176)"/>
<path d="M0 0 C0.33 0.66 0.66 1.32 1 2 C3.02463255 2.65213292 3.02463255 2.65213292 5 3 C5 4.98 5 6.96 5 9 C4.01 9.495 4.01 9.495 3 10 C1.68 7.03 0.36 4.06 -1 1 C-0.67 0.67 -0.34 0.34 0 0 Z " fill="#292728" transform="translate(140,144)"/>
<path d="M0 0 C2.72426311 2.35277269 3.8141763 4.62496331 5 8 C3.35 8.33 1.7 8.66 0 9 C-0.84454356 5.62182575 -1.10844919 3.32534757 0 0 Z " fill="#E1E1E1" transform="translate(120,109)"/>
<path d="M0 0 C1.98 0.495 1.98 0.495 4 1 C3.67 2.65 3.34 4.3 3 6 C1.68 5.67 0.36 5.34 -1 5 C-0.67 3.35 -0.34 1.7 0 0 Z " fill="#252525" transform="translate(114,123)"/>
<path d="M0 0 C-0.639375 0.268125 -1.27875 0.53625 -1.9375 0.8125 C-4.33131686 1.88667752 -4.33131686 1.88667752 -5 5 C-7.0625 5.6875 -7.0625 5.6875 -9 6 C-9.33 4.68 -9.66 3.36 -10 2 C-6.5980513 -0.09350689 -3.94727588 -0.17942163 0 0 Z " fill="#D1D1D1" transform="translate(114,106)"/>
<path d="M0 0 C0.33 0 0.66 0 1 0 C1.36923077 4.55384615 1.36923077 4.55384615 -0.5 6.8125 C-0.995 7.204375 -1.49 7.59625 -2 8 C-4.475 7.01 -4.475 7.01 -7 6 C-6.21625 5.38125 -5.4325 4.7625 -4.625 4.125 C-2.03162353 2.10141339 -2.03162353 2.10141339 0 0 Z " fill="#3B393A" transform="translate(106,101)"/>
<path d="M0 0 C1.98 0.495 1.98 0.495 4 1 C3.67 2.65 3.34 4.3 3 6 C1.68 5.67 0.36 5.34 -1 5 C-0.67 3.35 -0.34 1.7 0 0 Z " fill="#252525" transform="translate(99,86)"/>
<path d="M0 0 C1.98 0.99 1.98 0.99 4 2 C4.1953125 8.0546875 4.1953125 8.0546875 4 10 C3.34 10.66 2.68 11.32 2 12 C2 11.34 2 10.68 2 10 C1.34 10 0.68 10 0 10 C0.33 9.01 0.66 8.02 1 7 C1 4.37886292 0.68707555 2.49064888 0 0 Z " fill="#F8F8F8" transform="translate(108,78)"/>
<path d="M0 0 C0.33 0 0.66 0 1 0 C1 5.28 1 10.56 1 16 C0.01 15.01 -0.98 14.02 -2 13 C-1.85546875 9.86328125 -1.85546875 9.86328125 -1.1875 6.3125 C-0.97480469 5.13300781 -0.76210937 3.95351563 -0.54296875 2.73828125 C-0.36378906 1.83464844 -0.18460937 0.93101563 0 0 Z " fill="#F8F8F8" transform="translate(111,44)"/>
<path d="M0 0 C1.65 0.33 3.3 0.66 5 1 C4.67 2.32 4.34 3.64 4 5 C2.35 4.67 0.7 4.34 -1 4 C-0.67 2.68 -0.34 1.36 0 0 Z " fill="#292929" transform="translate(105,50)"/>
<path d="M0 0 C0.33 0.66 0.66 1.32 1 2 C1.66 2 2.32 2 3 2 C1.92598892 4.91517292 1.22189824 6.77810176 -1 9 C-1.66 8.34 -2.32 7.68 -3 7 C-2.01 4.69 -1.02 2.38 0 0 Z " fill="#D7D5D6" transform="translate(60,145)"/>
<path d="M0 0 C0.66 1.32 1.32 2.64 2 4 C0.68 4.99 -0.64 5.98 -2 7 C-1.34 7.33 -0.68 7.66 0 8 C-3.37817425 8.84454356 -5.67465243 9.10844919 -9 8 C-8.67 7.34 -8.34 6.68 -8 6 C-6.35 6.33 -4.7 6.66 -3 7 C-2.814375 6.1028125 -2.814375 6.1028125 -2.625 5.1875 C-2 3 -2 3 0 0 Z " fill="#C9C8C8" transform="translate(112,125)"/>
<path d="M0 0 C0.99 0.33 1.98 0.66 3 1 C3 1.66 3 2.32 3 3 C3.66 3 4.32 3 5 3 C4.67 4.32 4.34 5.64 4 7 C2.68 6.67 1.36 6.34 0 6 C0 4.02 0 2.04 0 0 Z " fill="#EEEEEE" transform="translate(90,116)"/>
<path d="M0 0 C2.125 0.375 2.125 0.375 4 1 C3.01 1 2.02 1 1 1 C1.33 2.98 1.66 4.96 2 7 C1.01 7.33 0.02 7.66 -1 8 C-1.625 5.125 -1.625 5.125 -2 2 C-1.34 1.34 -0.68 0.68 0 0 Z " fill="#3A393A" transform="translate(92,45)"/>
<path d="M0 0 C1.1875 1.625 1.1875 1.625 2 4 C0.625 7.25 0.625 7.25 -1 10 C-1.99 10 -2.98 10 -4 10 C-2.8905928 6.51329166 -1.73662334 3.22515763 0 0 Z " fill="#2B292A" transform="translate(56,148)"/>
<path d="M0 0 C-1 3 -1 3 -3 4 C-3.99 5.485 -3.99 5.485 -5 7 C-5.99 6.67 -6.98 6.34 -8 6 C-8 5.34 -8 4.68 -8 4 C-3.64705882 0 -3.64705882 0 0 0 Z " fill="#2F2F2F" transform="translate(153,175)"/>
<path d="M0 0 C1.32 0.33 2.64 0.66 4 1 C3.40138258 3.35171131 2.73075648 5.6859378 2 8 C1.01 8.495 1.01 8.495 0 9 C0 6.03 0 3.06 0 0 Z " fill="#EEEEEE" transform="translate(87,78)"/>
<path d="M0 0 C0.99 0 1.98 0 3 0 C3 0.99 3 1.98 3 3 C3.66 3 4.32 3 5 3 C5 3.99 5 4.98 5 6 C4.34 6 3.68 6 3 6 C3 5.34 3 4.68 3 4 C2.01 4 1.02 4 0 4 C0 4.66 0 5.32 0 6 C-0.66 6 -1.32 6 -2 6 C-1.34 4.02 -0.68 2.04 0 0 Z " fill="#E2E4E3" transform="translate(100,72)"/>
<path d="M0 0 C0.625 1.875 0.625 1.875 1 4 C0.34 4.66 -0.32 5.32 -1 6 C-1.99 6 -2.98 6 -4 6 C-4.66 5.34 -5.32 4.68 -6 4 C-2.25 0 -2.25 0 0 0 Z " fill="#E3E2E2" transform="translate(147,171)"/>
<path d="M0 0 C0.99 0.33 1.98 0.66 3 1 C3.33 2.98 3.66 4.96 4 7 C3.34 7 2.68 7 2 7 C2 6.34 2 5.68 2 5 C1.01 4.67 0.02 4.34 -1 4 C-0.67 2.68 -0.34 1.36 0 0 Z " fill="#EFEDEE" transform="translate(138,147)"/>
<path d="M0 0 C0.99 0.66 1.98 1.32 3 2 C2.34 3.98 1.68 5.96 1 8 C-0.32 7.67 -1.64 7.34 -3 7 C-1.125 2.25 -1.125 2.25 0 0 Z " fill="#2E2D2D" transform="translate(67,139)"/>
<path d="M0 0 C0.66 0 1.32 0 2 0 C3.29243536 4.1196377 4.26252625 7.66831683 4 12 C3.01 12.33 2.02 12.66 1 13 C1 12.01 1 11.02 1 10 C0.84739214 8.26953591 0.67951995 6.54037955 0.5 4.8125 C0.4071875 3.91144531 0.314375 3.01039062 0.21875 2.08203125 C0.1465625 1.39496094 0.074375 0.70789063 0 0 Z " fill="#D0D0D0" transform="translate(95,80)"/>
<path d="M0 0 C0.99 0.33 1.98 0.66 3 1 C4.1875 4.0625 4.1875 4.0625 5 7 C3.68 7 2.36 7 1 7 C0.814375 6.071875 0.814375 6.071875 0.625 5.125 C0.12802644 2.80879168 0.12802644 2.80879168 -2 1 C-1.34 0.67 -0.68 0.34 0 0 Z " fill="#E1E1E1" transform="translate(98,44)"/>
<path d="M0 0 C1.5625 1.25 1.5625 1.25 3 3 C2.6875 5.1875 2.6875 5.1875 2 7 C1.34 7 0.68 7 0 7 C0 6.34 0 5.68 0 5 C-0.66 5 -1.32 5 -2 5 C-1.34 3.35 -0.68 1.7 0 0 Z " fill="#DEDEDE" transform="translate(148,164)"/>
<path d="M0 0 C0.66 0 1.32 0 2 0 C1.67 3.3 1.34 6.6 1 10 C0.34 8.68 -0.32 7.36 -1 6 C-1.66 5.67 -2.32 5.34 -3 5 C-2 3 -2 3 0 0 Z " fill="#2B2B2B" transform="translate(48,163)"/>
<path d="M0 0 C0.33 0.66 0.66 1.32 1 2 C1.66 2 2.32 2 3 2 C3.33 1.34 3.66 0.68 4 0 C6 3 6 3 5.625 5.1875 C5.41875 5.785625 5.2125 6.38375 5 7 C3.0625 6.3125 3.0625 6.3125 1 5 C0.25 2.375 0.25 2.375 0 0 Z " fill="#DEDDDE" transform="translate(139,152)"/>
<path d="M0 0 C1.98 0.99 1.98 0.99 4 2 C3.67 3.98 3.34 5.96 3 8 C1.5 6.8125 1.5 6.8125 0 5 C-0.1875 2.3125 -0.1875 2.3125 0 0 Z " fill="#EFEFEF" transform="translate(128,129)"/>
<path d="M0 0 C0.33 0.99 0.66 1.98 1 3 C1.99 3.33 2.98 3.66 4 4 C4 4.66 4 5.32 4 6 C5.32 6.33 6.64 6.66 8 7 C2.56193353 7.36253776 2.56193353 7.36253776 0.0625 5.75 C-1 4 -1 4 -0.6875 1.8125 C-0.460625 1.214375 -0.23375 0.61625 0 0 Z " fill="#F9F9F9" transform="translate(99,127)"/>
<path d="M0 0 C2.0625 0.4375 2.0625 0.4375 4 1 C3 4 3 4 0 6 C-0.38218767 4.34385343 -0.71395102 2.67542976 -1 1 C-0.67 0.67 -0.34 0.34 0 0 Z " fill="#EDEDED" transform="translate(70,126)"/>
<path d="M0 0 C2 2 2 2 2 5 C2.99 5.33 3.98 5.66 5 6 C4.67 6.66 4.34 7.32 4 8 C3.01 8 2.02 8 1 8 C0.26919734 6.02253397 -0.39421747 4.01927511 -1 2 C-0.67 1.34 -0.34 0.68 0 0 Z " fill="#292828" transform="translate(120,103)"/>
<path d="M0 0 C1.67542976 0.28604898 3.34385343 0.61781233 5 1 C5.33 2.32 5.66 3.64 6 5 C5.01 5.495 5.01 5.495 4 6 C4 5.34 4 4.68 4 4 C3.34 4 2.68 4 2 4 C1.67 3.34 1.34 2.68 1 2 C0.34 1.67 -0.32 1.34 -1 1 C-0.67 0.67 -0.34 0.34 0 0 Z " fill="#464646" transform="translate(85,100)"/>
<path d="M0 0 C0.99 0.99 1.98 1.98 3 3 C3.99 2.01 4.98 1.02 6 0 C6.33 0.99 6.66 1.98 7 3 C6.34 3 5.68 3 5 3 C4.67 3.99 4.34 4.98 4 6 C3.01 5.67 2.02 5.34 1 5 C0.67 3.35 0.34 1.7 0 0 Z " fill="#FBFBFB" transform="translate(106,94)"/>
<path d="M0 0 C2.31 0.66 4.62 1.32 7 2 C6.01 2.495 6.01 2.495 5 3 C5 3.66 5 4.32 5 5 C3.68 5 2.36 5 1 5 C0.67 3.35 0.34 1.7 0 0 Z " fill="#EDEDED" transform="translate(90,85)"/>
<path d="M0 0 C0.66 1.32 1.32 2.64 2 4 C1.01 5.32 0.02 6.64 -1 8 C-1.33 6.02 -1.66 4.04 -2 2 C-1.34 2 -0.68 2 0 2 C0 1.34 0 0.68 0 0 Z M-4 4 C-3.01 4.495 -3.01 4.495 -2 5 C-2.99 5.495 -2.99 5.495 -4 6 C-4 5.34 -4 4.68 -4 4 Z " fill="#272626" transform="translate(63,133)"/>
<path d="M0 0 C0.66 0.33 1.32 0.66 2 1 C1.34 2.65 0.68 4.3 0 6 C-0.66 6 -1.32 6 -2 6 C-2.33 4.35 -2.66 2.7 -3 1 C-2.01 0.67 -1.02 0.34 0 0 Z " fill="#E8E8E8" transform="translate(88,87)"/>
<path d="M0 0 C0.99 0.33 1.98 0.66 3 1 C3.6875 3.0625 3.6875 3.0625 4 5 C3.01 5.495 3.01 5.495 2 6 C2 5.34 2 4.68 2 4 C1.34 4 0.68 4 0 4 C0 3.34 0 2.68 0 2 C-0.66 1.67 -1.32 1.34 -2 1 C-1.34 0.67 -0.68 0.34 0 0 Z " fill="#2D292A" transform="translate(123,127)"/>
<path d="M0 0 C2.97 0.495 2.97 0.495 6 1 C4.68 2.32 3.36 3.64 2 5 C0 1.125 0 1.125 0 0 Z " fill="#333232" transform="translate(77,125)"/>
<path d="M0 0 C0.66 0 1.32 0 2 0 C2 0.66 2 1.32 2 2 C2.99 1.67 3.98 1.34 5 1 C4.67 2.65 4.34 4.3 4 6 C3.34 5.67 2.68 5.34 2 5 C2 4.34 2 3.68 2 3 C1.01 2.67 0.02 2.34 -1 2 C-0.67 1.34 -0.34 0.68 0 0 Z " fill="#F8F8F8" transform="translate(121,119)"/>
<path d="M0 0 C0.33 0.66 0.66 1.32 1 2 C1.66 2 2.32 2 3 2 C3 2.66 3 3.32 3 4 C3.66 4.33 4.32 4.66 5 5 C3.02 5 1.04 5 -1 5 C-1 1 -1 1 0 0 Z " fill="#D7D7D7" transform="translate(89,120)"/>
<path d="M0 0 C1.65 0 3.3 0 5 0 C5.33 1.32 5.66 2.64 6 4 C4.68 4 3.36 4 2 4 C2 3.01 2 2.02 2 1 C1.34 0.67 0.68 0.34 0 0 Z " fill="#252525" transform="translate(90,80)"/>
</svg>
